<?xml version="1.0" encoding="UTF-8" standalone="no"?>
<!-- Created with Inkscape (http://www.inkscape.org/) -->

<svg
   width="100"
   height="100"
   viewBox="0 0 26.458333 26.458333"
   version="1.1"
   id="svg5"
   inkscape:version="1.2.1 (9c6d41e410, 2022-07-14)"
   sodipodi:docname="Grotte.svg"
   xmlns:inkscape="http://www.inkscape.org/namespaces/inkscape"
   xmlns:sodipodi="http://sodipodi.sourceforge.net/DTD/sodipodi-0.dtd"
   xmlns:xlink="http://www.w3.org/1999/xlink"
   xmlns="http://www.w3.org/2000/svg"
   xmlns:svg="http://www.w3.org/2000/svg">
  <sodipodi:namedview
     id="namedview7"
     pagecolor="#505050"
     bordercolor="#eeeeee"
     borderopacity="1"
     inkscape:showpageshadow="0"
     inkscape:pageopacity="0"
     inkscape:pagecheckerboard="0"
     inkscape:deskcolor="#505050"
     inkscape:document-units="mm"
     showgrid="false"
     inkscape:zoom="6.4664915"
     inkscape:cx="59.151087"
     inkscape:cy="54.975716"
     inkscape:window-width="2560"
     inkscape:window-height="1377"
     inkscape:window-x="2552"
     inkscape:window-y="-8"
     inkscape:window-maximized="1"
     inkscape:current-layer="svg5" />
  <defs
     id="defs2">
    <linearGradient
       inkscape:collect="always"
       id="linearGradient2982">
      <stop
         style="stop-color:#000000;stop-opacity:1;"
         offset="0"
         id="stop2978" />
      <stop
         style="stop-color:#303030;stop-opacity:1;"
         offset="1"
         id="stop2980" />
    </linearGradient>
    <linearGradient
       inkscape:collect="always"
       id="linearGradient10563">
      <stop
         style="stop-color:#000000;stop-opacity:1;"
         offset="0.5"
         id="stop10559" />
      <stop
         style="stop-color:#000000;stop-opacity:0;"
         offset="0.5"
         id="stop10561" />
    </linearGradient>
    <linearGradient
       id="linearGradient4046"
       inkscape:swatch="solid">
      <stop
         style="stop-color:#000000;stop-opacity:1;"
         offset="0"
         id="stop4044" />
    </linearGradient>
    <linearGradient
       inkscape:collect="always"
       xlink:href="#linearGradient10563"
       id="linearGradient10565"
       x1="15.775782"
       y1="17.760155"
       x2="15.643486"
       y2="18.256248"
       gradientUnits="userSpaceOnUse"
       spreadMethod="repeat"
       gradientTransform="translate(68.580258,-14.177145)" />
    <linearGradient
       inkscape:collect="always"
       xlink:href="#linearGradient2982"
       id="linearGradient2984"
       x1="13.36083"
       y1="22.76935"
       x2="12.690137"
       y2="16.722559"
       gradientUnits="userSpaceOnUse" />
  </defs>
  <g
     inkscape:groupmode="layer"
     id="layer2"
     inkscape:label="Couleur"
     style="display:inline">
    <path
       style="display:inline;fill:url(#linearGradient2984);fill-opacity:1;stroke:#000000;stroke-width:0.5;stroke-miterlimit:6;stroke-dasharray:none;stroke-opacity:1"
       d="m 10.386596,24.302897 0.895531,-0.929527 -0.345823,-1.153578 0.520776,-1.157281 0.549709,-0.925824 -0.376117,-0.954757 0.115729,-2.43029 1.330872,-1.157281 0.896893,0.839029 c 0,0 0.376116,1.678057 0.867961,1.678057 0.491844,0 2.401357,0.549709 2.401357,0.549709 l 0.260389,0.983688 0.405048,1.157281 -1.215145,1.735921 0.347184,0.752233 -0.14466,0.520776 0.867961,0.462913"
       id="path2715"
       sodipodi:nodetypes="cccccccccsccccccc" />
  </g>
  <g
     inkscape:groupmode="layer"
     id="layer4"
     inkscape:label="Herbe"
     style="display:inline"
     transform="rotate(6.2803695,18.400715,16.658055)" />
  <g
     inkscape:groupmode="layer"
     id="layer3"
     inkscape:label="Roche"
     style="display:inline">
    <path
       style="fill:#6c5d53;fill-opacity:1;stroke:#000000;stroke-width:0.499999;stroke-miterlimit:6;stroke-dasharray:none;stroke-opacity:1"
       d="m 10.270867,24.331829 1.273009,-1.128348 -0.405048,-1.273009 0.260388,-0.867961 -0.896892,-0.665436 -1.6491255,0.115728 -1.1862131,0.231456 -1.3598049,0.491844 -0.086796,1.070485 0.115728,0.839029 v 0.376116"
       id="path3809" />
    <path
       style="fill:#6c5d53;fill-opacity:1;stroke:#000000;stroke-width:0.499999;stroke-miterlimit:6;stroke-dasharray:none;stroke-opacity:1"
       d="m 7.4065974,20.802123 1.4350283,-0.179378 1.5739023,-0.196738 1.01262,0.665436 0.607573,-0.954756 -0.462913,-1.157281 0.115728,-1.186213 -1.041552,-1.070485 -2.198834,0.723301 -0.9475035,0.448409 -0.6534536,1.417027 z"
       id="path3813"
       sodipodi:nodetypes="cccccccccccc" />
    <path
       style="fill:#6c5d53;fill-opacity:1;stroke:#000000;stroke-width:0.499999;stroke-miterlimit:6;stroke-dasharray:none;stroke-opacity:1"
       d="m 8.3902861,17.417077 -0.791372,-0.61706 -0.3080447,-1.552842 0.6075722,-1.938445 1.5912613,-0.231457 1.5044651,-1.01262 c 0,0 1.301941,0.752232 1.620193,0.7233 0.318252,-0.02893 2.025242,-0.02893 2.025242,-0.02893 l 1.099416,-0.231456 0.925825,1.273009 -0.607572,1.301941 0.115728,0.983689 -1.880582,1.215144 -0.318252,-0.86796 -0.954757,-0.723301 -1.273008,1.070485 -0.0868,0.839029 -1.099416,-0.839029 z"
       id="path3815"
       sodipodi:nodetypes="ccccccscccccccccccc" />
    <path
       style="fill:#6c5d53;fill-opacity:1;stroke:#000000;stroke-width:0.499999;stroke-miterlimit:6;stroke-dasharray:none;stroke-opacity:1"
       d="m 14.437078,17.156688 1.504466,-1.01262 0.14466,-1.186213 0.536661,-1.045623 1.906816,0.3331 2.3269,0.651043 0.347614,2.882049 -1.298964,1.721756 0.202523,1.330873 -2.140969,0.14466 -0.723301,-2.314561 -2.632813,-0.665437 z"
       id="path3817"
       sodipodi:nodetypes="ccccccccccccc" />
    <path
       style="fill:#6c5d53;fill-opacity:1;stroke:#000000;stroke-width:0.499999;stroke-miterlimit:6;stroke-dasharray:none;stroke-opacity:1"
       d="m 20.802123,24.389694 c 0,0 0.520776,-0.520777 0.549708,-0.723301 0.02893,-0.202524 -0.665436,-1.504465 -0.665436,-1.504465 l -0.578641,-1.301941 -0.520776,-0.05786 -1.591261,0.173592 -1.215145,1.504465 0.376116,0.954757 -0.260388,0.43398 0.723301,0.462912"
       id="path3819" />
  </g>
  <g
     inkscape:groupmode="layer"
     id="layer1"
     inkscape:label="Traits"
     style="display:inline">
    <path
       style="fill:none;fill-opacity:1;stroke:#000000;stroke-width:0.499999;stroke-miterlimit:6;stroke-dasharray:none;stroke-opacity:1"
       d="M 9.4607707,13.221934 9.9815471,13.858438 9.6632949,14.32135"
       id="path3821" />
    <path
       style="fill:none;fill-opacity:1;stroke:#000000;stroke-width:0.499999;stroke-miterlimit:6;stroke-dasharray:none;stroke-opacity:1"
       d="M 13.048342,15.623291 12.845817,15.102515 13.048342,14.46601"
       id="path3880" />
    <path
       style="fill:none;fill-opacity:1;stroke:#000000;stroke-width:0.499999;stroke-miterlimit:6;stroke-dasharray:none;stroke-opacity:1"
       d="m 17.272417,18.545425 0.954756,-0.02893 0.173592,-0.28932"
       id="path3882" />
    <path
       style="fill:none;fill-opacity:1;stroke:#000000;stroke-width:0.499999;stroke-miterlimit:6;stroke-dasharray:none;stroke-opacity:1"
       d="m 11.109896,22.075132 -0.839029,0.14466"
       id="path3884" />
  </g>
  <g
     inkscape:groupmode="layer"
     id="layer10"
     inkscape:label="Ombre"
     style="display:inline">
    <path
       id="path10557"
       style="fill:url(#linearGradient10565);fill-opacity:1;stroke:none;stroke-width:0.529167;stroke-miterlimit:6;stroke-dasharray:none;stroke-opacity:1"
       d="m 15.834692,12.479342 -1.473295,1.514119 0.368453,1.26814 -0.859379,1.064017 0.531751,1.022677 1.514119,-1.104842 0.286288,-1.472778 0.532267,-0.900204 z m -6.5060624,0.695564 -0.8588623,0.163815 0.3679362,1.104842 0.6955647,0.122473 0.4092774,-0.695565 z m 2.4959714,0.900204 -0.53175,1.145666 0.65474,1.227316 1.063501,-0.654741 -0.122473,-0.736389 0.163814,-0.450102 z m 9.124508,1.064018 -1.923397,1.79989 -0.490926,1.595768 0.532267,2.495972 0.08165,1.923396 -1.759583,1.39113 h 3.437 l 0.532267,-0.736906 -1.350305,-2.782259 v -1.308964 l 1.227315,-1.718758 z m -10.515637,1.79989 -0.9002038,1.473295 0.4909258,2.04587 -0.8996864,1.636592 -0.3276285,1.882056 1.3911299,0.286287 1.268656,-0.941027 -0.368453,-1.431954 0.859379,-1.841232 -0.327628,-0.941027 0.08216,-1.595769 z"
       sodipodi:nodetypes="cccccccccccccccccccccccccccccccccccccccccccccc" />
  </g>
</svg>
