<?xml version="1.0" encoding="UTF-8" standalone="no"?>
<!-- Created with Inkscape (http://www.inkscape.org/) -->

<svg
   width="100"
   height="100"
   viewBox="0 0 26.458333 26.458333"
   version="1.1"
   id="svg5"
   inkscape:version="1.2.1 (9c6d41e410, 2022-07-14)"
   sodipodi:docname="Phare.svg"
   xmlns:inkscape="http://www.inkscape.org/namespaces/inkscape"
   xmlns:sodipodi="http://sodipodi.sourceforge.net/DTD/sodipodi-0.dtd"
   xmlns:xlink="http://www.w3.org/1999/xlink"
   xmlns="http://www.w3.org/2000/svg"
   xmlns:svg="http://www.w3.org/2000/svg">
  <sodipodi:namedview
     id="namedview7"
     pagecolor="#505050"
     bordercolor="#eeeeee"
     borderopacity="1"
     inkscape:showpageshadow="0"
     inkscape:pageopacity="0"
     inkscape:pagecheckerboard="0"
     inkscape:deskcolor="#505050"
     inkscape:document-units="mm"
     showgrid="false"
     inkscape:zoom="7.9999996"
     inkscape:cx="27.687501"
     inkscape:cy="58.437503"
     inkscape:window-width="2560"
     inkscape:window-height="1377"
     inkscape:window-x="2552"
     inkscape:window-y="-8"
     inkscape:window-maximized="1"
     inkscape:current-layer="layer8" />
  <defs
     id="defs2">
    <linearGradient
       inkscape:collect="always"
       id="linearGradient8789">
      <stop
         style="stop-color:#000000;stop-opacity:1;"
         offset="0.5"
         id="stop8785" />
      <stop
         style="stop-color:#000000;stop-opacity:0;"
         offset="0.5"
         id="stop8787" />
    </linearGradient>
    <linearGradient
       id="linearGradient4046"
       inkscape:swatch="solid">
      <stop
         style="stop-color:#000000;stop-opacity:1;"
         offset="0"
         id="stop4044" />
    </linearGradient>
    <linearGradient
       inkscape:collect="always"
       xlink:href="#linearGradient8789"
       id="linearGradient8791"
       x1="17.974146"
       y1="11.147644"
       x2="17.828157"
       y2="11.685524"
       gradientUnits="userSpaceOnUse"
       spreadMethod="repeat"
       gradientTransform="translate(0,1.0583333)" />
  </defs>
  <g
     inkscape:groupmode="layer"
     id="layer5"
     inkscape:label="Fort">
    <g
       inkscape:groupmode="layer"
       id="layer6"
       inkscape:label="Couleur">
      <path
         id="path4986-1"
         style="fill:#6c5d53;fill-opacity:1;stroke:none;stroke-width:0.529167;stroke-linejoin:miter;stroke-miterlimit:6;stroke-dasharray:none;stroke-opacity:1"
         d="m 10.065535,12.420948 0.0083,1.481563 0.912089,0.486792 -0.329696,4.442106 -0.650606,6.904488 6.406844,-0.138492 -0.714685,-6.763929 -0.342098,-4.39508 0.929142,-0.54467 0.0925,-1.431437 -1.706212,-0.06404 0.05785,-2.6396103 -3.199614,0.00964 0.136424,2.6055673 z"
         sodipodi:nodetypes="ccccccccccccccc" />
      <path
         style="fill:#784421;fill-opacity:1;stroke:none;stroke-width:0.125608;stroke-miterlimit:6"
         d="m 12.281194,25.67486 0.0628,-1.680011 1.837022,-0.0314 0.0157,1.742816 -1.80562,0.0157 z"
         id="path1913" />
      <path
         style="fill:#2d2d2d;fill-opacity:1;stroke:none;stroke-width:0.349999;stroke-miterlimit:6;stroke-dasharray:none;stroke-opacity:1"
         d="m 10.787835,9.5638165 c 0.140316,-0.1169305 1.403164,-2.1047474 1.543481,-2.3152221 0.140317,-0.2104747 1.005602,-2.174906 1.005602,-2.174906 l 0.982215,2.4087667 1.379779,1.9644309 -3.46114,0.1870887 z"
         id="path2604" />
      <path
         style="fill:#ffbf00;fill-opacity:1;stroke:none;stroke-width:0.266933;stroke-miterlimit:6;stroke-dasharray:none;stroke-opacity:1"
         d="m 12.236357,12.253516 -0.06733,-2.6623702 1.83715,-0.033073 -0.03848,2.7946622 z"
         id="path5730" />
    </g>
    <g
       inkscape:groupmode="layer"
       id="layer7"
       inkscape:label="Trait"
       style="display:inline">
      <path
         style="fill:none;fill-opacity:1;stroke:#000000;stroke-width:0.5;stroke-linejoin:miter;stroke-miterlimit:6;stroke-dasharray:none;stroke-opacity:1"
         d="m 10.012061,25.756569 0.650682,-6.904455 0.32962,-4.44212 -0.912208,-0.486904 -0.1238549,-1.498164 6.2951009,0.04155 0.03993,1.448144 -0.929175,0.544299 0.342308,4.395423 0.714422,6.763988"
         id="path4986"
         sodipodi:nodetypes="cccccccccc" />
      <path
         style="fill:none;fill-opacity:1;stroke:#000000;stroke-width:0.35;stroke-linejoin:miter;stroke-miterlimit:6;stroke-dasharray:none;stroke-opacity:1"
         d="m 5.7647649,24.35509 v -2.00788 l 0.9610364,-0.703617 0.9095528,0.686456 -0.017162,2.059364"
         id="path5012"
         class="UnoptimicedTransforms"
         transform="translate(6.5714895,1.3389663)" />
      <path
         style="fill:none;fill-opacity:1;stroke:#000000;stroke-width:0.35;stroke-linejoin:miter;stroke-miterlimit:6;stroke-dasharray:none;stroke-opacity:1"
         d="m 5.7990877,22.621792 c 0.2574202,0 1.7847823,0 1.7847823,0"
         id="path5020"
         class="UnoptimicedTransforms"
         transform="translate(6.5714895,1.3389663)" />
      <path
         style="fill:none;fill-opacity:1;stroke:#000000;stroke-width:0.529167;stroke-linejoin:miter;stroke-miterlimit:6;stroke-dasharray:none;stroke-opacity:1"
         d="m 15.35997,14.40365 -4.365467,10e-7"
         id="path5034"
         sodipodi:nodetypes="cc" />
      <path
         style="fill:none;fill-opacity:1;stroke:#000000;stroke-width:0.35;stroke-miterlimit:6;stroke-dasharray:none;stroke-opacity:1"
         d="M 11.559575,12.41692 11.512803,9.5404305"
         id="path2539"
         sodipodi:nodetypes="cc" />
      <path
         style="fill:none;fill-opacity:1;stroke:#000000;stroke-width:0.35;stroke-miterlimit:6;stroke-dasharray:none;stroke-opacity:1"
         d="m 14.623152,12.487078 0.11693,-2.9934197"
         id="path2595"
         sodipodi:nodetypes="cc" />
      <path
         style="fill:none;fill-opacity:1;stroke:#000000;stroke-width:0.499999;stroke-miterlimit:6;stroke-dasharray:none;stroke-opacity:1"
         d="m 13.126443,9.5872026 -2.408767,-3e-7 c 1.054308,-1.512221 1.584976,-2.1805375 2.619242,-4.560286 1.608564,3.8207244 1.488914,3.0090093 2.478924,4.4433557 z"
         id="path2599"
         sodipodi:nodetypes="ccccc" />
      <path
         style="fill:none;fill-opacity:1;stroke:#000000;stroke-width:0.349999;stroke-miterlimit:6;stroke-dasharray:none;stroke-opacity:1"
         d="m 12.286588,12.385808 -0.06615,-2.6127612 1.785937,-0.066146 -0.06615,2.7450522"
         id="path8702" />
      <path
         style="fill:#5081ab;fill-opacity:1;stroke:#000000;stroke-width:0.349999;stroke-miterlimit:6;stroke-dasharray:none;stroke-opacity:1"
         d="m 12.768802,20.889733 0.02339,-1.566868 1.169304,-0.04677 0.02338,1.613639 z"
         id="path8704"
         sodipodi:nodetypes="ccccc" />
    </g>
    <g
       inkscape:groupmode="layer"
       id="layer8"
       inkscape:label="Hachure">
      <path
         style="fill:url(#linearGradient8791);fill-opacity:1;stroke:none;stroke-width:0.349999;stroke-miterlimit:6;stroke-dasharray:none;stroke-opacity:1"
         d="m 14.242125,25.707266 -0.53788,-11.10839 -1.286235,-0.11693 0.163703,-0.678197 1.777342,-0.02339 -0.397563,-1.333007 -0.233861,-2.9232609 -0.304019,0.070158 -0.04677,-4.4667421 1.613639,3.2272796 c 0,0 0.912058,1.0289878 0.795127,1.0757598 -0.11693,0.046772 -1.052373,0.093545 -1.052373,0.093545 l -0.02339,2.8998746 1.590253,0.09354 v 1.403165 l -0.982215,0.654811 1.169304,11.085003 z"
         id="path8760"
         sodipodi:nodetypes="ccccccccccsccccccc" />
    </g>
  </g>
</svg>
