<?xml version="1.0" encoding="UTF-8" standalone="no"?>
<!-- Created with Inkscape (http://www.inkscape.org/) -->

<svg
   width="100"
   height="100"
   viewBox="0 0 26.458333 26.458333"
   version="1.1"
   id="svg5"
   inkscape:version="1.2.1 (9c6d41e410, 2022-07-14)"
   sodipodi:docname="Tour.svg"
   xmlns:inkscape="http://www.inkscape.org/namespaces/inkscape"
   xmlns:sodipodi="http://sodipodi.sourceforge.net/DTD/sodipodi-0.dtd"
   xmlns:xlink="http://www.w3.org/1999/xlink"
   xmlns="http://www.w3.org/2000/svg"
   xmlns:svg="http://www.w3.org/2000/svg">
  <sodipodi:namedview
     id="namedview7"
     pagecolor="#505050"
     bordercolor="#eeeeee"
     borderopacity="1"
     inkscape:showpageshadow="0"
     inkscape:pageopacity="0"
     inkscape:pagecheckerboard="0"
     inkscape:deskcolor="#505050"
     inkscape:document-units="mm"
     showgrid="false"
     inkscape:zoom="5.6568543"
     inkscape:cx="-8.396893"
     inkscape:cy="58.071144"
     inkscape:window-width="2560"
     inkscape:window-height="1377"
     inkscape:window-x="2552"
     inkscape:window-y="-8"
     inkscape:window-maximized="1"
     inkscape:current-layer="layer5" />
  <defs
     id="defs2">
    <linearGradient
       id="linearGradient4046"
       inkscape:swatch="solid">
      <stop
         style="stop-color:#000000;stop-opacity:1;"
         offset="0"
         id="stop4044" />
    </linearGradient>
    <linearGradient
       inkscape:collect="always"
       xlink:href="#linearGradient8789"
       id="linearGradient8791"
       x1="17.974146"
       y1="11.147644"
       x2="17.828157"
       y2="11.685524"
       gradientUnits="userSpaceOnUse"
       spreadMethod="repeat"
       gradientTransform="translate(-0.09895267,1.0859993)" />
    <linearGradient
       inkscape:collect="always"
       id="linearGradient8789">
      <stop
         style="stop-color:#000000;stop-opacity:1;"
         offset="0.5"
         id="stop8785" />
      <stop
         style="stop-color:#000000;stop-opacity:0;"
         offset="0.5"
         id="stop8787" />
    </linearGradient>
  </defs>
  <g
     inkscape:groupmode="layer"
     id="layer5"
     inkscape:label="Fort">
    <g
       inkscape:groupmode="layer"
       id="layer6"
       inkscape:label="Couleur">
      <path
         id="path4986-1"
         style="fill:#6c5d53;fill-opacity:1;stroke:none;stroke-width:0.529167;stroke-linejoin:miter;stroke-miterlimit:6;stroke-dasharray:none;stroke-opacity:1"
         d="m 14.779976,8.7756918 -3.227193,0.2573486 v 2.8566736 l -0.832507,0.04806 -0.07441,-1.241785 -0.7126182,0.03824 0.1405602,3.168282 0.912089,0.486792 -0.329696,4.442106 -0.650606,6.904488 6.406844,-0.138492 -0.714685,-6.763929 -0.342098,-4.39508 0.929142,-0.54467 -0.02325,-3.448885 -0.780831,0.02325 0.0021,1.314131 -0.839742,0.04547 0.0062,-0.435632 z" />
      <path
         style="fill:#784421;fill-opacity:1;stroke:none;stroke-width:0.125608;stroke-miterlimit:6"
         d="m 12.281194,25.67486 0.0628,-1.680011 1.837022,-0.0314 0.0157,1.742816 -1.80562,0.0157 z"
         id="path1913" />
      <path
         style="fill:#2d2d2d;fill-opacity:1;stroke:none;stroke-width:0.349999;stroke-miterlimit:6;stroke-dasharray:none;stroke-opacity:1"
         d="m 10.804371,8.8692852 c 0.140316,-0.1169305 1.403164,-2.1047474 1.543481,-2.3152221 0.140317,-0.2104747 1.005602,-2.174906 1.005602,-2.174906 l 0.982215,2.4087667 1.379779,1.9644309 -3.46114,0.1870887 z"
         id="path2604" />
    </g>
    <g
       inkscape:groupmode="layer"
       id="layer7"
       inkscape:label="Trait"
       style="display:inline">
      <path
         style="fill:none;fill-opacity:1;stroke:#000000;stroke-width:0.5;stroke-linejoin:miter;stroke-miterlimit:6;stroke-dasharray:none;stroke-opacity:1"
         d="m 10.012061,25.756569 0.650682,-6.904455 0.32962,-4.44212 -0.912208,-0.486904 -0.1403914,-3.168347 0.7124314,-0.03829 0.07444,1.241828 0.848469,-0.04891 0.01062,-1.192916 0.895241,-0.03615 0.03615,1.205679 1.143414,0.0071 0.02054,-1.265536 0.98589,-0.04544 -0.01733,1.266393 0.839883,-0.04542 -0.0021,-1.314126 0.780525,-0.02339 0.02339,3.449056 -0.929175,0.544299 0.342308,4.395423 0.714422,6.763988"
         id="path4986"
         sodipodi:nodetypes="cccccccccccccccccccccc" />
      <path
         style="fill:none;fill-opacity:1;stroke:#000000;stroke-width:0.35;stroke-linejoin:miter;stroke-miterlimit:6;stroke-dasharray:none;stroke-opacity:1"
         d="m 5.7647649,24.35509 v -2.00788 l 0.9610364,-0.703617 0.9095528,0.686456 -0.017162,2.059364"
         id="path5012"
         class="UnoptimicedTransforms"
         transform="translate(6.5714895,1.3389663)" />
      <path
         style="fill:none;fill-opacity:1;stroke:#000000;stroke-width:0.35;stroke-linejoin:miter;stroke-miterlimit:6;stroke-dasharray:none;stroke-opacity:1"
         d="m 5.7990877,22.621792 c 0.2574202,0 1.7847823,0 1.7847823,0"
         id="path5020"
         class="UnoptimicedTransforms"
         transform="translate(6.5714895,1.3389663)" />
      <path
         style="fill:none;fill-opacity:1;stroke:#000000;stroke-width:0.5;stroke-linejoin:miter;stroke-miterlimit:6;stroke-dasharray:none;stroke-opacity:1"
         d="M 14.096896,22.286267 V 20.912605"
         id="path5024" />
      <path
         style="fill:none;fill-opacity:1;stroke:#000000;stroke-width:0.5;stroke-linejoin:miter;stroke-miterlimit:6;stroke-dasharray:none;stroke-opacity:1"
         d="M 12.036404,19.936583 V 18.562922"
         id="path5026" />
      <path
         style="fill:none;fill-opacity:1;stroke:#000000;stroke-width:0.5;stroke-linejoin:miter;stroke-miterlimit:6;stroke-dasharray:none;stroke-opacity:1"
         d="M 13.9523,17.153112 13.843853,15.526408"
         id="path5028" />
      <path
         style="fill:none;fill-opacity:1;stroke:#000000;stroke-width:0.529167;stroke-linejoin:miter;stroke-miterlimit:6;stroke-dasharray:none;stroke-opacity:1"
         d="m 15.35997,14.40365 -4.365467,10e-7"
         id="path5034"
         sodipodi:nodetypes="cc" />
      <path
         style="fill:none;fill-opacity:1;stroke:#000000;stroke-width:0.35;stroke-miterlimit:6;stroke-dasharray:none;stroke-opacity:1"
         d="M 11.576111,11.722388 11.529339,8.8458992"
         id="path2539"
         sodipodi:nodetypes="cc" />
      <path
         style="fill:none;fill-opacity:1;stroke:#000000;stroke-width:0.35;stroke-miterlimit:6;stroke-dasharray:none;stroke-opacity:1"
         d="m 14.639688,11.792546 0.11693,-2.993419"
         id="path2595"
         sodipodi:nodetypes="cc" />
      <path
         style="fill:none;fill-opacity:1;stroke:#000000;stroke-width:0.499999;stroke-miterlimit:6;stroke-dasharray:none;stroke-opacity:1"
         d="m 13.142979,8.8926713 -2.408767,-3e-7 c 1.054308,-1.512221 1.584976,-2.1805375 2.619242,-4.560286 1.608564,3.8207244 1.488914,3.0090093 2.478924,4.4433557 z"
         id="path2599"
         sodipodi:nodetypes="ccccc" />
    </g>
    <g
       inkscape:groupmode="layer"
       id="layer8"
       inkscape:label="Hachure" />
    <path
       style="fill:url(#linearGradient8791);fill-opacity:1;stroke:none;stroke-width:0.349999;stroke-miterlimit:6;stroke-dasharray:none;stroke-opacity:1"
       d="m 14.143172,25.734932 -0.504807,-11.257218 -1.319307,0.0319 0.163702,-0.678197 1.777342,-0.02339 -0.397562,-1.333007 -0.101569,-3.5185735 -0.419775,-0.012522 0.06899,-4.4336691 1.646712,3.3264988 c 0,0 0.912058,0.8801588 0.795127,0.9269308 -0.11693,0.04677 -1.085446,0.126623 -1.085446,0.126623 l 0.04276,2.96602 0.76343,-0.08836 -0.04919,-1.290152 0.808002,0.053 -0.130429,3.417527 -0.982215,0.654811 1.169304,11.085003 z"
       id="path8760"
       sodipodi:nodetypes="ccccccccccsccccccccc" />
  </g>
</svg>
